<?xml version="1.0" encoding="UTF-8" standalone="no"?>
<svg xmlns="http://www.w3.org/2000/svg" width="268" height="275" viewBox="0 0 268 275" version="1.1">
  <path d="M24,21 L24,257 L172,258 L220,238 L242,208 L248,181 L244,155 L232,134 L241,87 L222,46 L177,21 Z M162,209 L168,213 L168,215 L164,219 L162,219 L158,215 Z M149,163 L152,163 L155,166 L155,168 L152,171 L148,171 L146,169 L146,166 Z M173,120 L176,120 L179,123 L179,126 L176,129 L173,129 L170,125 L170,123 Z M157,72 L159,72 L162,75 L162,78 L159,81 L157,81 L153,77 Z M46,41 L173,41 L209,64 L220,103 L206,135 L226,187 L204,224 L172,237 L44,235 L46,194 L91,194 L115,224 L174,229 L173,199 L126,207 L111,191 L125,176 L162,181 L159,151 L99,177 L46,177 L44,161 L100,159 L125,133 L179,142 L192,129 L169,107 L118,115 L92,142 L46,142 L46,124 L88,123 L90,83 L161,94 L175,81 L161,59 L72,66 L71,104 L46,106 Z" fill="#41BDF5" fill-rule="evenodd" />
</svg>
